<svg version="1.2" xmlns="http://www.w3.org/2000/svg" viewBox="0 0 396 396" width="396" height="396">
	<title>GiraffeHead-svg</title>
	<style>
		.s0 { fill: #00849d } 
		.s1 { fill: #045f70 } 
		.s2 { fill: #41b0c9 } 
		.s3 { fill: #ffffff } 
		.s4 { fill: #9ee3ee } 
		.s5 { fill: #f5929d } 
		.s6 { fill: #00839c } 
		.s7 { fill: #010101 } 
		.s8 { opacity: .1;fill: #005061 } 
		.s9 { fill: #0094ac } 
		.s10 { fill: #005061 } 
		.s11 { fill: #8adce9 } 
	</style>
	<g id="Layer_5">
		<g id="Layer">
			<g id="Layer">
				<g id="Layer">
					<path id="Layer" class="s0" d="m62.4 266.1c0.5-13.5 2.8-33.3 11.4-55.5 6.6-17 14.9-30.2 21.9-39.6-3.7 3-8.5 6.2-14.7 8.9-26.6 11.3-52.1-0.6-59.9-4.2-7.4-3.4-11.2-6.6-14.1-10.3-0.8-1.1-6.9-9.2-6.3-19.7 0.9-16.9 18.7-31.7 33.1-31 8.8 0.4 8.7 6.1 30.2 15.3 12.5 5.4 20 6.7 22.2 7.1 4.4 0.7 12.9 1.7 23.4 0.3 7.1-1 15.6-2.1 24-7.2 13.4-8.2 18.8-21.7 20.7-27.6 0.8-3.9 1.5-9.9-0.8-16.2-2-5.5-5.3-8.8-8.7-12.3-11.4-11.7-17-17.6-19.9-22.5-6.7-11.4-7.9-26.1-3.1-37 1.1-2.5 3.1-7 7.9-10.3 1-0.7 7.6-5.1 14.9-3.5 11.1 2.5 17.8 18 15.8 29-0.9 4.8-3.1 6.3-3.9 13-0.5 4-0.2 7.6 1.1 14.4 0.8 4.1 2.7 13.4 9.4 32.2 3.5 9.8 5 12.9 8.4 15.8 1.6 1.4 5.7 4.7 11.4 5.4 3.1 0.4 4.5-0.3 7.5 0.6 4.4 1.3 7 4.4 7.6 5.1 3.5 3.7 17.8 9.4 57.5 18.3 1.6 0.8 4.4 1.9 7.6 1.3 1.1-0.2 4.6-1.1 9.6-8.2 3.5-5 5.1-9.3 6.2-12.4 8.1-21.6 7.4-19 8.2-21.6 3.7-12.9 2.4-16.5 7.1-23.8 3.7-5.9 7.3-8 9.2-8.9 5.1-2.4 9.9-1.8 11.5-1.6 7.6 1.2 12 6.7 13.9 9 1.9 2.4 5.1 6.3 5.4 12.1 0.4 6.6-3.2 11.4-4.8 13.6-3.3 4.5-7.1 6.6-10.4 8.6 0 0-14.9 9-27.2 20.1-9.6 8.7-11.8 13.5-12.8 16.4-1.5 4.4-1.6 8-1.7 12.8-0.1 5.6-0.3 14.7 3 24.1 7.1 20.3 26 29.9 30.1 31.9 5.8 2.9 12.9 4.4 26.9 7.4 28.5 6 36.7 3.9 45 12 8.2 8 9 18.5 9.1 20.2 1.1 16.4-11.9 31.3-25.9 36.9-16.9 6.7-37.8 0.8-51.2-15.1-7.2-12.2-14.5-24.4-21.8-36.6 0.1 3.4 0.2 8.4 0 14.6-0.4 11.7-1.4 18.7-3.6 37-2.6 22.5-2 20.5-2.7 23.5-3 13.3-8.9 24.5-15.6 33.7z"/>
					<g id="Layer">
						<path id="Layer" class="s1" d="m261.1 137.2c-1.6-4.2-5.3-7.4-9.3-9.5-4-2.1-8.4-3.5-12.5-5.4-5.1-2.3-9.8-5.5-13.8-9.4-3.1-2.9-5.8-6.3-7.3-10.2-1.5-4-1.6-8.6 0.4-12.3 1.3-2.4 2.2-4.3 4.1-6.3 1.7-1.9 3.8-3.7 6.2-4.7 4.4-1.7 9.7-0.4 13.2 2.8 3.5 3.2 5.1 8.1 4.8 12.9-0.2 3.8-4.7 6.4-8.5 6.7-1.4 0.1-2.9-0.1-3.9-1-1.7-1.4-1.8-4.2-0.7-6.2 1.1-2 3-3.4 4.8-4.7-3.4 0.8-6.4 3.3-7.8 6.6-1.4 3.3-1.1 7.2 0.8 10.2 2.5 4 7.9 4.8 12.6 4.1 7.2-1 11.2-6.9 11.6-7.6 6.4-9.7 2.5-27.4-9.3-35.3-9.9-6.6-21.3-3.4-23.6-2.7-13.2 4.1-18.7 16.1-20.8 20.9-1.7 3.8-4.4 16.6-1.5 30.5 0.9 4.3 4.1 8 7.9 10.3 3.8 2.3 8.2 3.3 12.6 3.9 4.4 0.6 8.8 0.6 13.3 0.9 8.9 0.8 18.1 2.4 26.7 5.5z"/>
						<g id="Layer">
							<g id="Layer">
								<path id="Layer" class="s2" d="m383 253.3c-1.4 7.6-5.4 12.7-7.4 14.9 0 0-1 1.1-2.9 2.6-2.9 2.3-7.9 5.6-14.5 7-12 2.6-27-5-41.3-19.8-7.4-7.7-14.6-17.3-21.1-28.5-1.9 20.9-3.9 41.8-5.9 62.7-0.2 3.4-1 12.9-4.6 24.8-2.3 7.5-5.7 16-10.8 24.6 0 0 0 0 0 0.1-5.2 8.7-12.2 17.5-21.6 25.3-2.1 1.8-4.2 3.4-6.3 4.9l-0.1 0.1c-8.5 6-17 10.1-24.6 12.9-0.2 0.1-0.4 0.1-0.5 0.2-2.1 0.8-4.2 1.4-6.1 2-3.1 0.9-6 1.6-8.6 2.1 0 0 0 0-0.1 0-3.2 0.7-6 1-8.2 1.3-1.7 0-3.7 0-5.9 0-13.4-0.3-35.2-2.9-58.6-15-25.3-13.1-40.8-31.2-48.8-42.6-0.1-0.1-0.1-0.2-0.2-0.3-1.2-1.8-2.3-3.4-3.2-4.8-3.1-6.8-8-18.8-11.2-34.6v-0.1c-1.6-7.9-2.7-16.6-2.9-26.2 0-1 0-2.1 0-3.1 0-0.9 0-1.8 0-2.8 0 0 0-0.1 0-0.2 0-3.3 0.2-6.7 0.5-10.2 0.2-2.6 0.5-5.3 0.8-8 1.4-11 4-21.1 7.1-30.1 9.4-27.1 24.1-45.2 31-53-2.6 2.9-6.5 6.8-11.8 10.6-4.6 3.2-10.2 6.4-16.9 8.6-2.2 0.7-4.3 1.3-6.4 1.8-2.6 0.6-5.1 0.9-7.6 1.2-0.1 0-0.2 0-0.2 0-14.5 1.3-27.3-2.6-35.9-6.4-1.8-0.8-3.4-1.5-4.7-2.3-3-1.6-5.1-2.9-6-3.5-3.4-2.1-7.1-5.4-8.8-10.1-5.1-14.1 9.8-33.7 24.1-35.5 7.1-0.9 11.6 2.9 19.2 6.9 20.5 10.9 51.2 16.9 74.1 6.9 1.3-0.6 5.9-2.6 11.1-6.5 7-5.1 15.1-13.3 18.3-25.3 0.8-3.2 3.3-12.8-0.5-23.2-3.5-9.8-9.2-11.3-16-20-1.4-1.8-2.8-3.8-4.2-6.2-6.9-11.7-7.8-21.5-7.9-25.2-0.2-4-0.5-9.8 1.1-14.7 0-0.1 0-0.1 0.1-0.2 0.6-1.8 1.5-3.5 2.7-4.9l0.1-0.1c0.6-0.7 1.4-1.3 2.2-1.9 3-1.9 7-2.3 10.5-1.4 0.5 0.1 1 0.3 1.5 0.5q0.9 0.3 1.8 0.9c0.4 0.2 0.8 0.5 1.2 0.8 0.5 0.4 1.1 0.9 1.7 1.6 1.4 1.6 2.8 4.2 4.1 8.3 0.1 0.2 0.1 0.4 0.2 0.6 1 6-1.8 9-2.7 18.6 0 0.2 0 0.4-0.1 0.6-0.2 2-0.5 7.2 0.4 12.9 0.6 4.3 2.2 11 6.6 18.7 0 0 0.1 0.3 0.2 0.6 0.1 0.2 0.1 0.4 0.2 0.6 0.1 0.4 0.2 0.8 0.3 1.1 1.2 4.1 2.2 7.4 3.9 11.4 0.4 0.9 0.7 1.8 1.1 2.7 0.5 1.1 0.9 2.2 1.4 3.3 3.2 7.4 7.4 15.4 14.9 19 8.3 4 13.9-0.3 20.6 5.7 1.9 1.7 3.3 3.7 7 6 4 2.5 7.5 3.5 9 3.9 9.9 2.5 12.7-1.5 21.9 0.3 1.5 0.3 5.6 2.1 13.7 5.7 10.6 4.7 12.7 6.2 16 5.5 3.9-0.7 6.6-3.7 10.8-10.3 11.3-17.9 17.4-36.5 17.4-36.5 1.8-5.6 3.3-10.8 6.3-15 1.3-1.7 2.8-3.2 4.8-4.5 1.9-1.2 3.7-2 5.2-2.4 0.5-0.2 1-0.3 1.4-0.4 0.4 0 0.9 0 1.3 0.1 3.5 0.3 6.6 1.4 9.2 3.1 3.8 3.2 5.4 8 5.8 9.4 0.2 0.3 0.3 0.7 0.4 1 1.2 4.5-2.5 9.9-8.4 15.5-4.3 3.4-8.3 6.7-11.8 9.7 0 0 0 0-0.1 0-3.3 2.9-6.3 5.6-8.9 8.1-16.2 15.4-19.7 22.4-20.6 28.3-0.2 1.4-0.7 6.1-0.6 12 0.1 5.1 0.6 9.4 0.9 11.6 0.9 6.1 2.8 11.7 4.7 16.2 3 7.2 6.3 11.7 6.3 11.7 9 12.5 20.4 18.2 26.8 21.3 3.6 1.7 8 3.2 14.2 4.9 2 0.5 4.1 1.1 6.5 1.7h0.1c0.9 0.2 1.8 0.5 2.8 0.7 2.6 0.6 5.3 1.3 8.4 2.1 19.8 4.9 27 5.7 30.6 12.3 2.7 5.6 1.5 12.6 1 15.3z"/>
								<path id="Layer" class="s3" d="m66.3 261.8l11.4-10.6c-0.2-10.6 0.8-24.5 5.1-40.2 7.3-26.6 20.8-45.2 29.7-55.5-9.4 9.2-23.9 25.9-34.2 50.6-9.5 22.6-11.7 42.9-12 55.7z"/>
								<path id="Layer" class="s4" d="m77.7 251.1c-0.7-7.2-0.8-15.4 0.3-24.3 4.2-35.2 23.7-59.8 34.5-71.4-8.9 13.1-20.6 34.6-24.9 63-1.6 10.4-1.8 19.9-1.5 28.2q-4.2 2.3-8.4 4.5z"/>
								<path id="Layer" class="s5" d="m248 249.8c-2.5 2.8-2.3 7.2-0.7 10.6 1.7 3.4 4.6 5.9 7.4 8.4 2.7 2.4 5.8 4.9 9.4 4.5 2.6-0.3 4.9-2.1 6.5-4.3 2.8-3.8 4.1-8.9 2.7-13.5-2.8-8.4-19-12.9-25.3-5.7z"/>
								<path id="Layer" class="s5" d="m120.8 209.2c-4.7-1-9.8 0.5-13.2 4-3.3 3.4-4.7 8.7-3.5 13.3 0.4 1.7 1.3 3.4 2.8 4.3 1.8 1 4 0.7 6 0.3 3.3-0.6 6.6-1.3 9.9-1.9 2.4-0.5 5-1.1 6.3-3.1 1.2-1.9 0.9-4.4 0-6.5-2-5-6.5-9-11.7-10.3z"/>
								<g id="Layer">
									<g id="Layer">
										<path id="Layer" class="s1" d="m103 214.7c-0.1 6.6-5.3 13-11.8 13.6-1.7 0.2-3.7-0.2-4.6-1.6-1-1.5-0.6-3.4-0.1-5.1 1.1-4 2.2-8 3.2-12 0.6-2.4 0.9-7.6 3.8-8.3 5.9-1.4 9.5 9.3 9.5 13.4z"/>
										<path id="Layer" class="s1" d="m99.8 182.6c-1 2.4-2 5-1.2 7.4 0.9 2.4 3.5 3.9 6 3.9 2.5 0 4.9-1.4 6.6-3.3 1.7-1.9 2.8-4.3 3.6-6.7 1.1-3.2 1.7-6.7 0.7-9.9-0.9-2.9-5.2-7.7-8.6-5.1-1.7 1.3-2.7 4.2-3.6 6.1-1.2 2.6-2.4 5.1-3.5 7.6z"/>
										<path id="Layer" class="s1" d="m108.9 198.6c-0.4 1.9 0.3 3.8 1.5 5.3 0.7 0.8 1.5 1.6 2.6 1.7 1.1 0.2 2.3-0.2 3.2-1 1.7-1.4 2.4-3.8 1.8-5.9-1.5-4.3-8.1-5.4-9.1-0.1z"/>
										<path id="Layer" class="s1" d="m131.4 219.7c0.9-0.1 2 0.1 2.6 0.7 0.6 0.6 0.8 1.4 0.8 2.3 0 0.7 0 1.5-0.5 2.1-0.5 0.6-1.3 0.8-2 0.8-1.2 0.1-2.4 0.1-3.5-0.4-1.1-0.5-2-1.5-2.2-2.6-0.2-1 0.4-2.3 1.3-2.7 0.4-0.2 0.8-0.1 1.2 0 0.8-0.1 1.6-0.2 2.3-0.2z"/>
										<path id="Layer" class="s1" d="m185.1 203.5c-0.9 1.8-1.7 3.7-1.8 5.8-0.1 2.1 0.8 4.2 2.3 5.7 1.5 1.5 3.6 2.3 5.7 2.3 3.2-0.1 6-2.1 7.9-4.6 1.2-1.5 2.3-3.4 2.4-5.4 0.2-3.2-2-6.2-4.7-7.8-1.8-1.1-5.6-2.9-7.7-2.3-2.2 0.6-3.3 4.6-4.1 6.3z"/>
										<path id="Layer" class="s1" d="m199.4 236.8c0.8 0.9 2 1.2 3.1 1.4 1.1 0.2 2.3 0.2 3.4 0.7 1.4 0.7 2.5 2.2 4.1 2.3 1.6 0.2 3.1-1.3 3.3-2.9 0.4-3.3-4.1-7.7-7.3-8.2-3.1-0.5-9.9 2.9-6.6 6.7z"/>
										<path id="Layer" class="s1" d="m200.7 178.3c-1 0.8-1.7 2.1-1.6 3.4 1.8 0.7 3.8 1.5 5 3.1 0.5 0.7 0.9 1.5 1.7 1.8 1 0.4 2.2-0.5 2.7-1.5 0.9-1.6 0.9-3.6 0.1-5.2-1.6-2.7-5.3-3.5-7.9-1.6z"/>
										<path id="Layer" class="s1" d="m193.5 167.6c0.9 0.6 2 0.9 2.7 1.6 1 1.1 1.1 2.9 2.4 3.6 0.8 0.5 2 0.2 2.7-0.4 0.7-0.6 1.2-1.6 1.4-2.5 1.3-4.4-1-9.2-5.9-9.7-3.8-0.3-6.7 4.9-3.3 7.4z"/>
										<path id="Layer" class="s1" d="m207.4 147.6c-0.3 2.7-0.4 5.5 0.6 8 1.8 4.5 6.9 7 11.8 7.1 4.9 0.1 9.6-1.8 14-3.9 1.7-0.8 3.4-1.6 4.6-3 1.9-2.1 2.4-5.2 2-8-0.7-4.9-3.9-9.2-8-11.9-3.7-2.4-11-5.8-15.5-4.1-6.4 2.6-8.8 9.4-9.5 15.8z"/>
										<path id="Layer" class="s1" d="m277.6 232.7c-2.1 2.8-4.2 5.6-5.5 8.8-1.3 3.2-1.8 6.9-0.6 10.1 1.7 4.8 6.8 7.7 11.8 8.6 2.7 0.5 5.8 0.4 7.8-1.5 1.6-1.6 2-4.1 2.2-6.3 0.3-4.5-0.3-30.2-9-26.2-2.9 1.4-4.9 4.1-6.7 6.5z"/>
										<path id="Layer" class="s1" d="m272.7 277.8c-2.5 1.4-3.8 4.5-3.2 7.3 0.6 2.4 2.4 4.3 4.2 6.1q3.6 3.6 7.2 7.2c0.7 0.7 1.5 1.4 2.4 1.6 1.1 0.2 2.1-0.4 2.8-1.2 0.7-0.8 1-1.9 1.3-2.9 1-4.6-0.3-9.7-3.3-13.3-2.8-3.5-6.8-7.4-11.4-4.8z"/>
										<path id="Layer" class="s1" d="m268.2 156.9c-0.5 2.3 1.1 4.4 2.6 6.3 1.5 1.9 3 3.7 4.5 5.6 0.6 0.8 1.4 1.6 2.4 1.6 0.8 0 1.4-0.6 1.8-1.2 0.4-0.7 0.5-1.4 0.5-2.2 0.3-3.3 1.1-10.9-2-13.2-2.9-2.2-9-0.7-9.8 3.1z"/>
										<path id="Layer" class="s1" d="m193.6 129.1c1.6-0.4 3-1.4 4.1-2.6 1.8-1.7 3.3-4.2 2.5-6.6-0.9-2.4-3.7-3.4-6.2-4-2.2-0.6-4.4-1.1-6.6-1.7-0.9-0.2-4.2-1.6-5-1.2-1.3 0.8 0.3 2.2 1.1 3.3 1.6 2.2 2.9 4.3 3.6 6.9 0.9 3.5 2.2 7.1 6.5 5.9z"/>
									</g>
									<path id="Layer" class="s1" d="m145.9 133.3c-0.3 1-0.7 2.1-0.4 3.2 0.3 1.1 1.2 1.9 2.2 2.3 1 0.4 2.2 0.3 3.2 0.1 2-0.5 3.7-1.8 4.8-3.5 1.5-2.4 1.6-5.7 0.1-8.1-1-1.6-4.5-4.7-6.6-3.3-1.8 1.1-2.7 7.3-3.3 9.3z"/>
								</g>
								<path id="Layer" class="s6" d="m247.2 136.3c3.7-0.1 7.5 1.1 9.9 3.9 2.4 2.8 3.1 7.1 1.1 10.2-0.3 0.5-0.7 0.9-1.3 1.1-0.9 0.2-1.8-0.6-2.4-1.4-2.4-2.9-4.9-5.9-7.3-8.8-0.8-0.9-1.6-2.1-1.2-3.3 0.3-0.9 1.3-1.4 2.2-1.4 0.9-0.1 1.8 0.3 2.7 0.6z"/>
								<path id="Layer" class="s6" d="m184.2 121.5c0.1 1.5-1.1 2.8-2.5 3.3-1.4 0.5-2.9 0.4-4.4 0.2-1.5-0.2-3-0.4-4.4-0.1-1.4 0.3-2.7 1.1-4.1 1.6-1.4 0.5-3 0.7-4.2-0.2-1.3-1-1.5-3-0.7-4.4 0.7-1.4 2.2-2.4 3.6-3.1 3.3-1.6 6.8-1.7 10.4-1.3 2.4 0.1 6.1 1.2 6.3 4z"/>
								<g id="Layer">
									<g id="Layer">
										<path id="Layer" class="s3" d="m133.5 159c-13.7 17.8-12.3 48.2 3 56.7 13.8 7.6 36-4.1 45.9-20.1 9.6-15.5 11.3-41.2-3-50.7-13.6-9-35.4 0.5-45.9 14.1z"/>
										<path id="Layer" class="s7" d="m139.9 174.5c-9.9 12.8-9.2 34.9 2.2 41.3 10.1 5.7 26.2-2.4 33.5-13.6 7.6-11.7 8.5-31-2.3-38-10-6.4-25.8 0.5-33.4 10.3z"/>
									</g>
									<g id="Layer">
										<path id="Layer" class="s3" d="m271.7 201.4c-0.7 22.4-21.1 45.1-38.3 41.9-15.5-2.9-25.2-26.1-22.7-44.7 2.4-18.1 17.4-39 34.5-37.3 16.2 1.7 27 23 26.5 40.1z"/>
										<path id="Layer" class="s7" d="m256.9 209.4c-0.5 16.2-15.1 32.8-27.9 30.5-11.5-2-18.8-18.5-17.3-31.8 1.5-13.9 13.1-29.3 25.9-27.9 11.8 1.3 19.6 16.7 19.3 29.2z"/>
									</g>
									<path id="Layer" class="s0" d="m62.4 266.1c5.5-6.5 14.6-15.9 28.2-23.7 5.8-3.4 22.4-12.2 45-13.8 25.4-1.9 44.7 6.3 73.9 18.8 15 6.4 27.1 12.8 35.3 17.5 7 4.6 21.8 16 29.2 36 2.5 6.6 7.1 19.1 3.1 33.6-2.4 8.8-7.2 14.2-13.8 22.5-4.4 5.5-15 18.5-32.7 27.9-22.5 11.9-43.8 11.2-52.5 10.8-42.5-1.9-85.3-29.5-104.7-70.8-10.5-22.6-11.8-44.2-11-58.8z"/>
									<path id="Layer" class="s8" d="m173.5 335.3c3.1 1.4 6.6 3.6 6.5 6.9-0.1 2.1-1.6 3.9-3.4 4.8-1.8 0.9-3.9 1.3-6 1.5-4 0.5-8.1 1.1-12.1 0.7-4-0.4-8.1-1.7-11-4.5-3.2-3.1-10.5-19.5-1.7-18.1 9.5 1.6 19 4.8 27.7 8.7z"/>
									<g id="Layer">
										<path id="Layer" class="s9" d="m273.6 333.8c-2.7 7.7-8.9 21.7-22.5 34.2-20.9 19.1-45.1 21.5-52.8 21.9-5.2 0.5-12.2 0.8-20.6 0.2-3.9-0.3-23.8-2.2-45.4-13.5-28.9-15.1-44.4-38.5-50.7-49.4-3.5-8-7.1-17.8-10-29.2-2.9-11.3-4.3-21.6-5-30.3 6.9-8.1 19.4-20.5 38.2-28.3 41.7-17.4 81.9 0.9 104.8 11.2 21.3 9.7 58.7 26.6 64.8 59.8 1.8 9.3 0.6 17.5-0.8 23.4z"/>
										<path id="Layer" class="s8" d="m91.5 243.6c-1.1 7.3-7.4 57.5 29.1 99.3 39.8 45.5 96.6 42.2 102.9 41.7-10.8 1.6-28.8 2.8-49.8-2.4-8.2-2-55.6-14.7-81.6-61.5-15-27-16.1-53-15.6-66.6z"/>
										<path id="Layer" class="s3" d="m77.9 254.8c-4.1 3.4-8.1 6.8-12.2 10.1-0.2 7.7-0.4 62.2 42.8 98.8 9.5 8 37.9 29.5 77.6 28.6 16.3-0.4 29.4-4.5 37.7-7.8-5 0.7-72.7 8.9-116.5-42.2-30.3-35.5-29.9-77-29.4-87.5z"/>
										<g id="Layer">
											<path id="Layer" class="s10" d="m165.1 348.7c0.9 0.4 1.9 0.4 2.9 0.4 3.5 0 9.3-0.2 12.1-2.6 3.3-2.7-0.8-6-3.6-7-4.4-1.3-18.1 6.4-11.4 9.2z"/>
											<path id="Layer" class="s10" d="m140.9 339c1.1 1.5 2.7 2.8 4.6 2.9 1.9 0.1 3.9-1 4.3-2.8 0.5-1.8-0.6-3.6-1.6-5.2-1.3-1.9-6.4-11.1-9.3-7-2 2.9 0.3 9.6 2 12.1z"/>
											<g id="Layer">
												<path id="Layer" class="s10" d="m185.2 363.3c0.1 0.4 0.2 0.8 0.4 1.1 0.2 0.3 0.7 0.5 1 0.4 0.3-0.1 0.5-0.4 0.6-0.7 1.2-2.6 0.5-6-1.5-8-1-1-7.9-3.7-6.4-0.1 0.4 1.1 2.6 2 3.4 2.9 1.1 1.3 2 2.8 2.5 4.4z"/>
												<path id="Layer" class="s10" d="m125.6 347.6c1-0.7 2.2-0.9 3.3-0.9 1.2 0 2.3 0.2 3.5 0.1 0.9 0 1.8-0.2 2.4-0.8 0.6-0.7 0.6-1.8 0.1-2.6-0.5-0.8-1.3-1.3-2.2-1.6-0.9-0.3-1.8-0.3-2.8-0.3-1.7 0-3.4-0.1-4.8 0.8-1.3 0.8-2 2.3-2.1 3.8-0.1 1.3 0.2 3 0.9 4.1 0.5-0.9 0.7-2 1.7-2.6z"/>
												<path id="Layer" class="s10" d="m129.5 344.1c1.7 4 4.7 9.4 10.1 14.1 2.5 2.2 12.1 10 24.8 9.2 2.5-0.2 6.4-0.5 10.5-3 4.4-2.8 6.5-6.7 7.4-8.6 1.2 2.3 1.5 4.8 0.5 7.2-2.6 5.8-8.2 10-14.4 11.5-7.6 1.9-14-0.6-18.5-2.4-4.9-1.9-15.6-6.1-19.3-16.7-1.8-4.6-1.5-8.8-1.1-11.3z"/>
											</g>
										</g>
									</g>
								</g>
							</g>
							<g id="Layer">
								<path id="Layer" class="s3" d="m28.2 175.5c-1.8-0.4-15.3-3.3-19.9-13.9-5.1-12 2.6-30.2 21.4-38.2 1.6-0.4 4-0.8 7-0.7 8.8 0.3 14.4 4.9 21 8.6 8 4.5 14.8 6.1 22 7.9 6 1.4 22.2 5.2 41-0.8 5.3-1.7 13.2-4.8 21.6-11.2-2.6 2.5-6.4 5.8-11.6 8.9-11 6.5-21.3 7.7-27.2 8.3-9.8 1-25.7 2.7-40.4-4.6-4.1-2-12.3-6.9-22.9-6.4-2.5 0.1-4.2 0.5-4.6 0.6-8.4 1.8-17.7 8.2-18.3 16-0.1 1.3 0 2.6 0.9 5.4 1.3 4.8 4.1 11.9 10 20.1z"/>
								<path id="Layer" class="s11" d="m99.7 164.1c-3.7 0.2-10.3 0.3-17.8-2-17.5-5.4-21.4-18.2-39.8-22.7-5.2-1.3-11.8-2.8-17.8 0.7-6.6 3.9-10.5 12.7-9 20.5 1.1 5.7 4.7 9.3 7 11.5 8.4 8 19.3 8.9 28.1 9.7 9.2 0.8 16.2-0.5 22.3-1.6 6.2-1.1 10.5-1.9 15.3-4.7 6-3.6 9.7-8.3 11.7-11.4z"/>
							</g>
							<path id="Layer" class="s1" d="m82 150.8c1.9 1.8 4.5 3.2 7.1 3 3.4-0.2 6.3-2.8 7.7-5.9 0.4-0.8 0.6-1.9-0.1-2.5-0.4-0.3-0.9-0.3-1.4-0.4-3.5-0.1-6.9-0.2-10.4-0.3-1.7-0.1-3.5-0.1-5.2-0.2-0.5 0-1.7-0.3-1.8 0.3-0.1 0.5 0.7 1.4 1 1.8 0.9 1.6 1.9 3 3.1 4.2z"/>
							<path id="Layer" class="s1" d="m160.8 85.5c-0.7-0.2-1.4-0.1-2 0.4-0.9 0.7-0.8 2.2-0.2 3.2 0.6 1 1.5 1.8 2.1 2.7 0.6 0.9 1 2 1.6 3 0.6 1 1.6 1.8 2.7 1.8 0.9 0-0.2-5.8-0.4-6.4-0.7-1.9-1.8-4.2-3.8-4.7z"/>
							<g id="Layer">
								<path id="Layer" class="s3" d="m157.8 72.1c-4.3-2.1-12.8-7.2-18.8-17.2-7.2-12.2-6.5-24.9-4.8-32.1 1-4.1 2.7-11.1 8.4-13.8 1.6-0.7 3-1 4.1-1.1-2.5-1.1-6.9-2.5-11.1-0.9-9.2 3.4-10.3 17.9-10.5 21.3-1.1 14.6 6.4 30.5 19.6 38.7 5.1 3.2 10 4.5 13.1 5.1z"/>
								<path id="Layer" class="s11" d="m149.9 11.3c-0.8-1.4-2.3-3.2-4.5-3.6-4.9-0.9-9.5 5.9-10.5 7.4-6.5 9.8-3.5 22.1-2.2 27.2 0.8 3.4 2.2 9.2 6.6 15.3 6.1 8.6 14.1 12.4 17.8 13.9-4.4-3.5-11.6-10.2-16.1-20.8-4-9.6-3.4-17.6-3.6-19.9-0.1-1.4-0.6-8.9 4.8-14.7 2.7-2.9 5.8-4.2 7.7-4.8z"/>
								<path id="Layer" class="s1" d="m158.1 72.4c-0.2-0.1-0.3-0.2-0.5-0.3-0.6-0.3-1.3-0.7-2.1-1.1 0 0 0 0-0.1 0-0.3-0.2-0.6-0.4-1-0.6-0.1 0-0.2-0.1-0.3-0.2-0.1-0.1-0.2-0.1-0.3-0.2-2-1.3-4.2-3-6.3-5.2-12.2-12.3-11.7-28.4-11.6-30.5 0.6-11.8 6.6-24.7 11.2-24.5q0.2 0 0.3 0c0.8 0.1 1.5 0.6 2.2 1.4 1.8 2 3 5.7 3.5 8.2 0.1 0.3 0.1 0.6 0.2 0.9 0.1 0.5 0.3 1.2 0.4 2.1 1 6.3-1.4 10.7-2.5 15-1.6 6.2-0.5 11.6 0.1 14.6 1 4.6 2.4 6.7 6.1 19.1 0.4 0.6 0.6 1 0.7 1.3z"/>
							</g>
							<g id="Layer">
								<path id="Layer" class="s3" d="m330.2 80.9c-14.4 13.8-28.9 27.7-43.3 41.5 0.3-1 0.6-1.9 0.8-2.8 1.6-5.7 3.1-10.6 4.1-14.3 4.8-16.3 7.5-25 10.5-30 1.7-2.8 3.5-4.4 5.8-5.6 0.5-0.2 2-1 4.1-1.4 0.8-0.2 1.8-0.3 2.8-0.3 1.6-0.1 3.3 0.1 5 0.7q2.4 0.9 4.2 2.4c3.8 3.2 5.4 8 5.8 9.4 0.2 0.3 0.2 0.4 0.2 0.4z"/>
								<path id="Layer" class="s1" d="m322.1 97.2c-3.4 3.2-7.5 6.5-11.8 9.7 0 0 0 0-0.1 0-3.6 2.7-7.3 5.3-10.8 7.8-5.6 4-10.4 6.9-13.5 8.8q0.9-1.9 1.8-3.9c5.1-11 10-20.1 14-27.2 7.2-12.7 10.7-17.4 16-18 4.6-0.5 10.6 2.1 12.4 6.2 0.2 0.3 0.3 0.7 0.4 1 1.3 4.5-2.5 10-8.4 15.6z"/>
							</g>
						</g>
						<path id="Layer" class="s11" d="m372.7 270.8c-2.9 2.3-8 5.6-14.5 7-12 2.6-27-5-41.3-19.8l-16.6-27.9c5.2 4.9 17.1 14.4 31.8 15.3 6.6 0.4 12.3-0.6 12.3-0.6 9.3-1.6 11.6-4.7 18.9-5.1 2.9-0.2 10.7-0.6 14.4 3.6 4.9 5.6 2.1 18.9-5 27.5z"/>
						<path id="Layer" class="s3" d="m343 223.4c-0.1 0-0.2 0-0.4 0.1-3.9 0.7-20.8 3.1-36.7-8.1-16.6-11.7-19.6-29.3-20.1-32.3 0 0 0 0 0 0.1 3 7.2 6.3 11.7 6.3 11.7 9 12.5 20.4 18.2 26.8 21.3 3.6 1.7 8 3.2 14.2 4.9 2.4 0.7 4.6 1.3 6.5 1.7h0.1q1.8 0.3 3.3 0.6z"/>
					</g>
					<path id="Layer" class="s1" d="m296.5 215.3c-1.1 1.6-1.1 3.9-0.3 5.7 0.8 1.8 2.2 3.3 3.7 4.6 5.3 4.5 12.2 7.1 19.2 7.4 1.9 0.1 3.9-0.1 5.6-1 1.7-0.9 3-2.7 2.8-4.6-0.3-2.7-3.3-4.2-5.8-5.2-4.8-1.9-9.7-3.7-14.5-5.6-3-1.3-8.1-5.2-10.7-1.3z"/>
				</g>
			</g>
		</g>
	</g>
</svg>